# xmcd
#
# Track frame offsets: 
#        150
#        6745
#        21785
#        40262
#        55520
#        76950
#        95897
#        116725
#        141697
#        157295
#        178060
#        197690
#        217902
#
# Disc length: 2943 seconds
#
# Revision: 4
# Processed by: cddbd v1.5.2PL0 Copyright (c) Steve Scherf et al.
# Submitted via: ExactAudioCopy v0.90b4
#
DISCID=bf0b7d0d
DTITLE=Phife Dawg - Ventilation (Da LP)
DYEAR=2000
DGENRE=Hip-Hop
TTITLE0=Intro (Feat. J.U.S.)
TTITLE1=Flawless
TTITLE2=Alphabet Soup
TTITLE3=Miscellaneous
TTITLE4=D.R.U.G.S. (Feat. DJ Hi-Tek)
TTITLE5=The Club Hoppa
TTITLE6=Lemme Find Out (Feat. Pete Rock)
TTITLE7=Ben Dova
TTITLE8=Beats, Rhymes and Phife (Introducing Supa Dave West)
TTITLE9=Ventilation
TTITLE10=4 Horsemen (192 N' It) (Feat. No Name)
TTITLE11=Melody Adonis
TTITLE12=Outro (Feat. J.U.S.)
EXTD=
EXTT0=
EXTT1=
EXTT2=
EXTT3=
EXTT4=
EXTT5=
EXTT6=
EXTT7=
EXTT8=
EXTT9=
EXTT10=
EXTT11=
EXTT12=
PLAYORDER=
